<svg width="48" height="48" viewBox="0 0 48 48" fill="none" xmlns="http://www.w3.org/2000/svg">
<rect x="9" y="9" width="30" height="30" rx="15" fill="white"/>
<path d="M24 0C10.7464 0 0 10.7464 0 24C0 37.2536 10.7464 48 24 48C37.2536 48 48 37.2536 48 24C48 10.7464 37.2536 0 24 0ZM32.9464 33.9429C30.7714 35.9464 27.8036 37.125 24.2625 37.125C19.1357 37.125 14.7 34.1839 12.5411 29.8982C11.6518 28.125 11.1429 26.1214 11.1429 24C11.1429 21.8786 11.6518 19.875 12.5411 18.1018C14.7 13.8107 19.1357 10.8696 24.2625 10.8696C27.7982 10.8696 30.7661 12.1714 33.0429 14.2875L29.2821 18.0536C27.9214 16.7518 26.1911 16.0929 24.2679 16.0929C20.85 16.0929 17.9571 18.4018 16.9232 21.5036C16.6607 22.2911 16.5107 23.1321 16.5107 24C16.5107 24.8679 16.6607 25.7089 16.9232 26.4964C17.9571 29.5982 20.85 31.9071 24.2625 31.9071C26.0304 31.9071 27.5304 31.4411 28.7036 30.6536C30.0964 29.7214 31.0179 28.3339 31.3232 26.6893H24.2625V21.6107H36.6214C36.7768 22.4732 36.8571 23.3679 36.8571 24.2946C36.8571 28.2964 35.4268 31.6554 32.9464 33.9429Z" fill="#7095B9"/>
</svg>
